Coordinates
version=1
nRows=31
nColumns=38
inDegrees=no

Units are S.I. units (second, meters, Newtons, ...)
If the header above contains a line with 'inDegrees', this indicates whether rotational values are in degrees (yes) or radians (no).

endheader
time	pelvis_tilt	pelvis_list	pelvis_rotation	pelvis_tx	pelvis_ty	pelvis_tz	hip_flexion_r	hip_adduction_r	hip_rotation_r	knee_angle_r	ankle_angle_r	subtalar_angle_r	mtp_angle_r	hip_flexion_l	hip_adduction_l	hip_rotation_l	knee_angle_l	ankle_angle_l	subtalar_angle_l	mtp_angle_l	lumbar_extension	lumbar_bending	lumbar_rotation	arm_flex_r	arm_add_r	arm_rot_r	elbow_flex_r	pro_sup_r	wrist_flex_r	wrist_dev_r	arm_flex_l	arm_add_l	arm_rot_l	elbow_flex_l	pro_sup_l	wrist_flex_l	wrist_dev_l
1.71	-0.318555	1.47084	-0.942147	0.753651	1.48188	0.909589	0.258267	-0.0386833	-0.283325	0.228605	-0.076803	0	0	-0.393048	-0.194914	-0.175533	0.368838	0.162019	0	0	-0.277789	0.122043	-0.0626169	0.460497	-0.270751	0.477193	1.02682	1.42015	0	0	-0.105025	-0.32739	0.415345	0.572719	1.43159	0	0
1.72	-0.379036	1.47371	-0.875376	0.752413	1.47391	0.910394	0.251753	-0.0292025	-0.283556	0.220866	-0.0765807	0	0	-0.372785	-0.208618	-0.174592	0.401685	0.141869	0	0	-0.272625	0.129754	-0.0586858	0.483277	-0.266467	0.485897	1.02498	1.42313	0	0	-0.101681	-0.327463	0.421604	0.573857	1.42497	0	0
1.73	-0.452695	1.47761	-0.792005	0.750142	1.46565	0.911133	0.252532	-0.0163378	-0.300397	0.222133	-0.0771981	0	0	-0.346496	-0.238226	-0.190086	0.441071	0.130453	0	0	-0.264917	0.135291	-0.0544001	0.504303	-0.261672	0.492985	1.02103	1.4295	0	0	-0.0968134	-0.334679	0.451387	0.582621	1.35991	0	0
1.74	-0.423	1.48977	-0.815746	0.748163	1.45838	0.912342	0.250793	-0.0208697	-0.297032	0.21918	-0.0753726	0	0	-0.318971	-0.235625	-0.171906	0.474964	0.0975325	0	0	-0.26043	0.126473	-0.0507923	0.526457	-0.252265	0.495106	1.01339	1.43649	0	0	-0.0907899	-0.338434	0.454165	0.585215	1.36225	0	0
1.75	-0.580887	1.48397	-0.652433	0.747308	1.4506	0.912513	0.243939	-0.000870537	-0.300251	0.209707	-0.0774711	0	0	-0.292634	-0.260593	-0.172021	0.519731	0.077835	0	0	-0.254612	0.145999	-0.0417185	0.54984	-0.253022	0.505937	1.01457	1.4393	0	0	-0.0876247	-0.335654	0.45829	0.589378	1.36027	0	0
1.76	-0.668622	1.4857	-0.558379	0.745878	1.44335	0.913014	0.241065	0.00781987	-0.301574	0.203693	-0.0775731	0	0	-0.259307	-0.274389	-0.1639	0.567313	0.0480614	0	0	-0.248846	0.152773	-0.0343049	0.572409	-0.249781	0.511898	1.01118	1.44334	0	0	-0.0823994	-0.336456	0.464054	0.594716	1.35367	0	0
1.77	-0.740143	1.48773	-0.480004	0.744702	1.43634	0.91357	0.238413	0.0136016	-0.305215	0.200364	-0.0744664	0	0	-0.225856	-0.284719	-0.151391	0.613793	0.0167382	0	0	-0.244131	0.157985	-0.0266533	0.594656	-0.246894	0.515623	1.00633	1.44763	0	0	-0.0763749	-0.336946	0.470005	0.60026	1.345	0	0
1.78	-0.62732	1.47012	-0.602546	0.740228	1.42874	0.917027	0.207115	0.0385463	-0.286979	0.186515	-0.0825054	0	0	-0.231172	-0.303987	-0.166777	0.645667	-0.0221306	0	0	-0.272096	0.165215	0.00170896	0.622718	-0.242246	0.519233	1.0007	1.45045	0	0	-0.0660909	-0.341922	0.47561	0.611993	1.33764	0	0
1.79	-0.660892	1.47173	-0.562015	0.739076	1.42197	0.917632	0.201176	0.0441791	-0.286822	0.181276	-0.0823505	0	0	-0.197841	-0.313686	-0.155699	0.692446	-0.0583082	0	0	-0.270276	0.169241	0.01132	0.645027	-0.239981	0.52125	0.993072	1.4679	0	0	-0.0591975	-0.34856	0.504917	0.628391	1.26194	0	0
1.8	-0.688048	1.47343	-0.52788	0.738032	1.4153	0.918216	0.19521	0.048898	-0.288493	0.176909	-0.0816518	0	0	-0.165019	-0.3213	-0.143066	0.737792	-0.0924941	0	0	-0.269161	0.172728	0.0211418	0.667782	-0.238878	0.526251	0.985811	1.47047	0	0	-0.0525633	-0.34864	0.508754	0.636131	1.2507	0	0
1.81	-0.696424	1.4742	-0.5126	0.737038	1.40872	0.918938	0.186705	0.0538301	-0.289869	0.171396	-0.0814508	0	0	-0.134658	-0.3272	-0.129567	0.781846	-0.125956	0	0	-0.270514	0.175727	0.0316879	0.690828	-0.238562	0.531971	0.977778	1.46816	0	0	-0.0459095	-0.345665	0.499847	0.639944	1.27741	0	0
1.82	-0.698619	1.47441	-0.503292	0.736032	1.40228	0.919632	0.177362	0.0591477	-0.291617	0.165499	-0.0809973	0	0	-0.104321	-0.332506	-0.115568	0.826677	-0.1555	0	0	-0.272629	0.178494	0.043259	0.713371	-0.238818	0.535284	0.96762	1.47288	0	0	-0.0377819	-0.348185	0.516266	0.65095	1.23003	0	0
1.83	-0.684482	1.47384	-0.510652	0.735106	1.39588	0.920451	0.166148	0.0643178	-0.29386	0.159619	-0.0804858	0	0	-0.0768813	-0.336481	-0.102973	0.869531	-0.176932	0	0	-0.277001	0.181039	0.0556315	0.735939	-0.239939	0.53942	0.957323	1.47172	0	0	-0.0303734	-0.345017	0.509835	0.654638	1.25235	0	0
1.84	-0.660853	1.47255	-0.527647	0.734188	1.38955	0.92131	0.153818	0.0695698	-0.296619	0.153877	-0.080044	0	0	-0.0518889	-0.340019	-0.0926182	0.909792	-0.188172	0	0	-0.282657	0.183221	0.0690922	0.758461	-0.241502	0.543884	0.945506	1.47208	0	0	-0.0225036	-0.344329	0.51496	0.662137	1.24156	0	0
1.85	-0.625701	1.47074	-0.556769	0.733235	1.38326	0.922281	0.140374	0.0746845	-0.298664	0.148329	-0.0795313	0	0	-0.0306258	-0.342728	-0.0848393	0.945503	-0.187325	0	0	-0.289648	0.184703	0.0831923	0.781259	-0.242994	0.549877	0.931281	1.4713	0	0	-0.0150939	-0.343681	0.5199	0.670116	1.22968	0	0
1.86	-0.585505	1.46877	-0.591013	0.732284	1.37713	0.923281	0.12711	0.0792946	-0.300604	0.143964	-0.0775918	0	0	-0.0109208	-0.344599	-0.0771671	0.97919	-0.172474	0	0	-0.297006	0.185646	0.0967967	0.806232	-0.24449	0.563567	0.912289	1.45212	0	0	-0.0081696	-0.347165	0.539861	0.685591	1.14661	0	0
1.87	-0.53765	1.46757	-0.633652	0.731351	1.37111	0.924395	0.114718	0.0820852	-0.302057	0.141805	-0.0741245	0	0	0.00772792	-0.343861	-0.0688806	1.01249	-0.146977	0	0	-0.305003	0.184997	0.110835	0.830509	-0.245338	0.574972	0.892901	1.44736	0	0	-0.00205621	-0.34518	0.537932	0.692946	1.13272	0	0
1.88	-0.482563	1.46673	-0.683912	0.730457	1.36522	0.925604	0.102481	0.0834728	-0.30276	0.140676	-0.0702033	0	0	0.0256015	-0.340947	-0.0604243	1.0453	-0.116323	0	0	-0.313472	0.183045	0.125191	0.853828	-0.24634	0.584854	0.87308	1.44489	0	0	0.00399077	-0.343293	0.538855	0.698242	1.12545	0	0
1.89	-0.432952	1.46707	-0.728276	0.72967	1.35944	0.92672	0.0922601	0.0835319	-0.304742	0.140857	-0.0648829	0	0	0.0446634	-0.335892	-0.0514328	1.07537	-0.0882295	0	0	-0.321196	0.182683	0.134343	0.882089	-0.242287	0.60488	0.845047	1.43027	0	0	0.0173039	-0.305906	0.258537	0.670985	0.281094	0	0
1.9	-0.37411	1.46698	-0.782134	0.728909	1.3538	0.927888	0.0813797	0.082881	-0.306678	0.141239	-0.0593771	0	0	0.0614472	-0.329025	-0.0431795	1.09996	-0.0699183	0	0	-0.329047	0.179421	0.147461	0.904492	-0.242082	0.614671	0.821353	1.42867	0	0	0.020563	-0.304571	0.263403	0.679885	0.283366	0	0
1.91	-0.33446	1.46936	-0.816202	0.728256	1.34836	0.928715	0.0754374	0.0810297	-0.311584	0.144081	-0.0518897	0	0	0.0822702	-0.320352	-0.0334195	1.12186	-0.0585568	0	0	-0.3331	0.17584	0.159745	0.924552	-0.241979	0.621973	0.798651	1.4281	0	0	0.0237641	-0.30243	0.266688	0.686188	0.286362	0	0
1.92	-0.467649	1.4987	-0.654274	0.732168	1.34492	0.925829	0.104511	0.0590462	-0.343418	0.1577	-0.0320544	0	0	0.151596	-0.287078	0.0104124	1.15734	-0.0453428	0	0	-0.297778	0.17401	0.144851	0.936905	-0.243822	0.628343	0.776991	1.42805	0	0	0.0210311	-0.295225	0.268866	0.687777	0.291042	0	0
1.93	-0.404317	1.50078	-0.712412	0.731639	1.33964	0.926744	0.0960567	0.0579615	-0.345191	0.157192	-0.0271112	0	0	0.168624	-0.276646	0.0168719	1.17147	-0.0381918	0	0	-0.302914	0.17028	0.15735	0.95381	-0.243936	0.632662	0.756411	1.42735	0	0	0.0237433	-0.2933	0.273341	0.693496	0.295517	0	0
1.94	-0.341139	1.50321	-0.769984	0.731139	1.33452	0.927474	0.0890135	0.0560943	-0.348682	0.158205	-0.0206278	0	0	0.18632	-0.265426	0.0231767	1.18405	-0.0288499	0	0	-0.306198	0.164291	0.171726	0.967538	-0.247056	0.635149	0.735684	1.41673	0	0	0.0188538	-0.326665	0.541797	0.73287	1.07494	0	0
1.95	-0.282924	1.506	-0.822824	0.73068	1.32937	0.928167	0.0825307	0.0544625	-0.351289	0.1584	-0.0150348	0	0	0.203803	-0.254365	0.0276942	1.19374	-0.0179633	0	0	-0.30938	0.160303	0.18347	0.982481	-0.24685	0.639635	0.713825	1.41235	0	0	0.0209377	-0.325548	0.543679	0.738999	1.06769	0	0
1.96	-0.220762	1.50849	-0.879736	0.730257	1.32427	0.928853	0.0761747	0.0528342	-0.353793	0.158749	-0.00972264	0	0	0.220315	-0.243655	0.0305981	1.20077	-0.00777406	0	0	-0.312578	0.15634	0.195175	0.995989	-0.247257	0.643248	0.693022	1.40726	0	0	0.0227685	-0.324555	0.543478	0.743621	1.06018	0	0
1.97	-0.156749	1.51026	-0.938625	0.72986	1.31918	0.929559	0.0694752	0.0516767	-0.356493	0.158844	-0.00507954	0	0	0.235518	-0.234162	0.0315304	1.20503	0.00130251	0	0	-0.316027	0.152585	0.2071	1.00775	-0.248728	0.646317	0.674401	1.40201	0	0	0.0250344	-0.323447	0.546137	0.74631	1.05797	0	0
1.98	-0.0940217	1.51206	-0.99613	0.729501	1.31422	0.930207	0.0634806	0.0504713	-0.359976	0.159415	0.000154969	0	0	0.250578	-0.224549	0.032082	1.20722	0.00918378	0	0	-0.319109	0.149041	0.21804	1.01962	-0.24961	0.654165	0.6542	1.37561	0	0	0.0267743	-0.321324	0.547793	0.746275	1.09443	0	0
1.99	-0.0266427	1.51346	-1.0586	0.729135	1.30932	0.93085	0.0568071	0.0496828	-0.362292	0.158756	0.00466107	0	0	0.264366	-0.214977	0.0318355	1.20694	0.0164331	0	0	-0.322523	0.145293	0.22927	1.02956	-0.250865	0.658909	0.635984	1.3605	0	0	0.0289838	-0.320731	0.556285	0.747651	1.10537	0	0
2	0.0444094	1.51479	-1.12477	0.728766	1.30452	0.931448	0.0502172	0.0488972	-0.364518	0.157619	0.00888085	0	0	0.277578	-0.205362	0.0311646	1.2048	0.0233468	0	0	-0.326029	0.141287	0.240314	1.03797	-0.253086	0.664738	0.620947	1.34147	0	0	0.0310856	-0.320096	0.562206	0.74828	1.11393	0	0
2.01	0.123986	1.51616	-1.19906	0.728404	1.29985	0.932012	0.0439111	0.0477396	-0.367024	0.156328	0.0130554	0	0	0.29047	-0.195388	0.0304011	1.20085	0.029301	0	0	-0.329512	0.1369	0.250229	1.04565	-0.255365	0.672656	0.60723	1.31855	0	0	0.0328706	-0.319521	0.56591	0.748223	1.12379	0	0
